<svg width="144" height="144" viewBox="0 0 144 144" fill="none" xmlns="http://www.w3.org/2000/svg">
<circle cx="72" cy="72" r="72" fill="white"/>
<g filter="url(#filter0_d)">
<circle cx="72" cy="72" r="53" fill="#2196F3"/>
</g>
<path fill-rule="evenodd" clip-rule="evenodd" d="M60.32 40L84.16 63.84C85.7333 65.4133 85.7333 67.9467 84.16 69.4933L69.4933 84.16C68.72 84.9333 67.68 85.3333 66.6667 85.3333C65.6533 85.3333 64.6133 84.9333 63.84 84.16L49.1733 69.4933C47.6 67.9467 47.6 65.4133 49.1733 63.84L62.9067 50.1067L56.56 43.76L60.32 40ZM66.6667 53.8933L53.8933 66.6667H79.44L66.6667 53.8933ZM90.6667 70.6667C90.6667 70.6667 85.3333 76.4533 85.3333 80C85.3333 82.9333 87.7333 85.3333 90.6667 85.3333C93.6 85.3333 96 82.9333 96 80C96 76.4533 90.6667 70.6667 90.6667 70.6667ZM104 93.3333H40V104H104V93.3333Z" fill="white"/>
<defs>
<filter id="filter0_d" x="19" y="19" width="115" height="114" filterUnits="userSpaceOnUse" color-interpolation-filters="sRGB">
<feFlood flood-opacity="0" result="BackgroundImageFix"/>
<feColorMatrix in="SourceAlpha" type="matrix" values="0 0 0 0 0 0 0 0 0 0 0 0 0 0 0 0 0 0 127 0"/>
<feOffset dx="5" dy="4"/>
<feGaussianBlur stdDeviation="2"/>
<feColorMatrix type="matrix" values="0 0 0 0 0 0 0 0 0 0 0 0 0 0 0 0 0 0 0.1 0"/>
<feBlend mode="normal" in2="BackgroundImageFix" result="effect1_dropShadow"/>
<feBlend mode="normal" in="SourceGraphic" in2="effect1_dropShadow" result="shape"/>
</filter>
</defs>
</svg>